<?xml version="1.0" encoding="UTF-8"?>
<!DOCTYPE svg PUBLIC "-//W3C//DTD SVG 1.1//EN" "http://www.w3.org/Graphics/SVG/1.1/DTD/svg11.dtd">
<svg width="242mm" height="136mm" viewBox="0 0 24200 13600" version="1.1" xmlns="http://www.w3.org/2000/svg" xmlns:xlink="http://www.w3.org/1999/xlink" stroke-width="28.222" stroke-linejoin="round" xml:space="preserve">
 <path fill="rgb(255,255,255)" stroke="none" d="M 12108,13635 L 0,13635 0,0 24215,0 24215,13635 12108,13635 Z"/>
 <path fill="none" stroke="rgb(179,179,179)" stroke-linejoin="round" d="M 11604,12716 L 1846,12716 1846,2613 21362,2613 21362,12716 11604,12716 Z"/>
 <path fill="none" stroke="rgb(179,179,179)" stroke-linejoin="round" d="M 21362,12715 L 1846,12715"/>
 <path fill="none" stroke="rgb(179,179,179)" stroke-linejoin="round" d="M 21362,11271 L 1846,11271"/>
 <path fill="none" stroke="rgb(179,179,179)" stroke-linejoin="round" d="M 21362,9828 L 1846,9828"/>
 <path fill="none" stroke="rgb(179,179,179)" stroke-linejoin="round" d="M 21362,8384 L 1846,8384"/>
 <path fill="none" stroke="rgb(179,179,179)" stroke-linejoin="round" d="M 21362,6941 L 1846,6941"/>
 <path fill="none" stroke="rgb(179,179,179)" stroke-linejoin="round" d="M 21362,5498 L 1846,5498"/>
 <path fill="none" stroke="rgb(179,179,179)" stroke-linejoin="round" d="M 21362,4055 L 1846,4055"/>
 <path fill="none" stroke="rgb(179,179,179)" stroke-linejoin="round" d="M 21362,2612 L 1846,2612"/>
 <path fill="none" stroke="rgb(179,179,179)" stroke-linejoin="round" d="M 1846,12865 L 1846,12715"/>
 <path fill="none" stroke="rgb(179,179,179)" stroke-linejoin="round" d="M 1846,12865 L 1846,12715"/>
 <path fill="none" stroke="rgb(179,179,179)" stroke-linejoin="round" d="M 2596,12865 L 2596,12715"/>
 <path fill="none" stroke="rgb(179,179,179)" stroke-linejoin="round" d="M 2596,12865 L 2596,12715"/>
 <path fill="none" stroke="rgb(179,179,179)" stroke-linejoin="round" d="M 3347,12865 L 3347,12715"/>
 <path fill="none" stroke="rgb(179,179,179)" stroke-linejoin="round" d="M 3347,12865 L 3347,12715"/>
 <path fill="none" stroke="rgb(179,179,179)" stroke-linejoin="round" d="M 4097,12865 L 4097,12715"/>
 <path fill="none" stroke="rgb(179,179,179)" stroke-linejoin="round" d="M 4097,12865 L 4097,12715"/>
 <path fill="none" stroke="rgb(179,179,179)" stroke-linejoin="round" d="M 4848,12865 L 4848,12715"/>
 <path fill="none" stroke="rgb(179,179,179)" stroke-linejoin="round" d="M 4848,12865 L 4848,12715"/>
 <path fill="none" stroke="rgb(179,179,179)" stroke-linejoin="round" d="M 5599,12865 L 5599,12715"/>
 <path fill="none" stroke="rgb(179,179,179)" stroke-linejoin="round" d="M 5599,12865 L 5599,12715"/>
 <path fill="none" stroke="rgb(179,179,179)" stroke-linejoin="round" d="M 6349,12865 L 6349,12715"/>
 <path fill="none" stroke="rgb(179,179,179)" stroke-linejoin="round" d="M 6349,12865 L 6349,12715"/>
 <path fill="none" stroke="rgb(179,179,179)" stroke-linejoin="round" d="M 7100,12865 L 7100,12715"/>
 <path fill="none" stroke="rgb(179,179,179)" stroke-linejoin="round" d="M 7100,12865 L 7100,12715"/>
 <path fill="none" stroke="rgb(179,179,179)" stroke-linejoin="round" d="M 7851,12865 L 7851,12715"/>
 <path fill="none" stroke="rgb(179,179,179)" stroke-linejoin="round" d="M 7851,12865 L 7851,12715"/>
 <path fill="none" stroke="rgb(179,179,179)" stroke-linejoin="round" d="M 8601,12865 L 8601,12715"/>
 <path fill="none" stroke="rgb(179,179,179)" stroke-linejoin="round" d="M 8601,12865 L 8601,12715"/>
 <path fill="none" stroke="rgb(179,179,179)" stroke-linejoin="round" d="M 9352,12865 L 9352,12715"/>
 <path fill="none" stroke="rgb(179,179,179)" stroke-linejoin="round" d="M 9352,12865 L 9352,12715"/>
 <path fill="none" stroke="rgb(179,179,179)" stroke-linejoin="round" d="M 10103,12865 L 10103,12715"/>
 <path fill="none" stroke="rgb(179,179,179)" stroke-linejoin="round" d="M 10103,12865 L 10103,12715"/>
 <path fill="none" stroke="rgb(179,179,179)" stroke-linejoin="round" d="M 10853,12865 L 10853,12715"/>
 <path fill="none" stroke="rgb(179,179,179)" stroke-linejoin="round" d="M 10853,12865 L 10853,12715"/>
 <path fill="none" stroke="rgb(179,179,179)" stroke-linejoin="round" d="M 11604,12865 L 11604,12715"/>
 <path fill="none" stroke="rgb(179,179,179)" stroke-linejoin="round" d="M 11604,12865 L 11604,12715"/>
 <path fill="none" stroke="rgb(179,179,179)" stroke-linejoin="round" d="M 12354,12865 L 12354,12715"/>
 <path fill="none" stroke="rgb(179,179,179)" stroke-linejoin="round" d="M 12354,12865 L 12354,12715"/>
 <path fill="none" stroke="rgb(179,179,179)" stroke-linejoin="round" d="M 13104,12865 L 13104,12715"/>
 <path fill="none" stroke="rgb(179,179,179)" stroke-linejoin="round" d="M 13104,12865 L 13104,12715"/>
 <path fill="none" stroke="rgb(179,179,179)" stroke-linejoin="round" d="M 13855,12865 L 13855,12715"/>
 <path fill="none" stroke="rgb(179,179,179)" stroke-linejoin="round" d="M 13855,12865 L 13855,12715"/>
 <path fill="none" stroke="rgb(179,179,179)" stroke-linejoin="round" d="M 14606,12865 L 14606,12715"/>
 <path fill="none" stroke="rgb(179,179,179)" stroke-linejoin="round" d="M 14606,12865 L 14606,12715"/>
 <path fill="none" stroke="rgb(179,179,179)" stroke-linejoin="round" d="M 15356,12865 L 15356,12715"/>
 <path fill="none" stroke="rgb(179,179,179)" stroke-linejoin="round" d="M 15356,12865 L 15356,12715"/>
 <path fill="none" stroke="rgb(179,179,179)" stroke-linejoin="round" d="M 16107,12865 L 16107,12715"/>
 <path fill="none" stroke="rgb(179,179,179)" stroke-linejoin="round" d="M 16107,12865 L 16107,12715"/>
 <path fill="none" stroke="rgb(179,179,179)" stroke-linejoin="round" d="M 16858,12865 L 16858,12715"/>
 <path fill="none" stroke="rgb(179,179,179)" stroke-linejoin="round" d="M 16858,12865 L 16858,12715"/>
 <path fill="none" stroke="rgb(179,179,179)" stroke-linejoin="round" d="M 17608,12865 L 17608,12715"/>
 <path fill="none" stroke="rgb(179,179,179)" stroke-linejoin="round" d="M 17608,12865 L 17608,12715"/>
 <path fill="none" stroke="rgb(179,179,179)" stroke-linejoin="round" d="M 18359,12865 L 18359,12715"/>
 <path fill="none" stroke="rgb(179,179,179)" stroke-linejoin="round" d="M 18359,12865 L 18359,12715"/>
 <path fill="none" stroke="rgb(179,179,179)" stroke-linejoin="round" d="M 19110,12865 L 19110,12715"/>
 <path fill="none" stroke="rgb(179,179,179)" stroke-linejoin="round" d="M 19110,12865 L 19110,12715"/>
 <path fill="none" stroke="rgb(179,179,179)" stroke-linejoin="round" d="M 19860,12865 L 19860,12715"/>
 <path fill="none" stroke="rgb(179,179,179)" stroke-linejoin="round" d="M 19860,12865 L 19860,12715"/>
 <path fill="none" stroke="rgb(179,179,179)" stroke-linejoin="round" d="M 20611,12865 L 20611,12715"/>
 <path fill="none" stroke="rgb(179,179,179)" stroke-linejoin="round" d="M 20611,12865 L 20611,12715"/>
 <path fill="none" stroke="rgb(179,179,179)" stroke-linejoin="round" d="M 21362,12865 L 21362,12715"/>
 <path fill="none" stroke="rgb(179,179,179)" stroke-linejoin="round" d="M 21362,12865 L 21362,12715"/>
 <path fill="none" stroke="rgb(179,179,179)" stroke-linejoin="round" d="M 1846,12715 L 21362,12715"/>
 <path fill="none" stroke="rgb(179,179,179)" stroke-linejoin="round" d="M 1696,12715 L 1846,12715"/>
 <path fill="none" stroke="rgb(179,179,179)" stroke-linejoin="round" d="M 1696,12715 L 1846,12715"/>
 <path fill="none" stroke="rgb(179,179,179)" stroke-linejoin="round" d="M 1696,11271 L 1846,11271"/>
 <path fill="none" stroke="rgb(179,179,179)" stroke-linejoin="round" d="M 1696,11271 L 1846,11271"/>
 <path fill="none" stroke="rgb(179,179,179)" stroke-linejoin="round" d="M 1696,9828 L 1846,9828"/>
 <path fill="none" stroke="rgb(179,179,179)" stroke-linejoin="round" d="M 1696,9828 L 1846,9828"/>
 <path fill="none" stroke="rgb(179,179,179)" stroke-linejoin="round" d="M 1696,8384 L 1846,8384"/>
 <path fill="none" stroke="rgb(179,179,179)" stroke-linejoin="round" d="M 1696,8384 L 1846,8384"/>
 <path fill="none" stroke="rgb(179,179,179)" stroke-linejoin="round" d="M 1696,6941 L 1846,6941"/>
 <path fill="none" stroke="rgb(179,179,179)" stroke-linejoin="round" d="M 1696,6941 L 1846,6941"/>
 <path fill="none" stroke="rgb(179,179,179)" stroke-linejoin="round" d="M 1696,5498 L 1846,5498"/>
 <path fill="none" stroke="rgb(179,179,179)" stroke-linejoin="round" d="M 1696,5498 L 1846,5498"/>
 <path fill="none" stroke="rgb(179,179,179)" stroke-linejoin="round" d="M 1696,4055 L 1846,4055"/>
 <path fill="none" stroke="rgb(179,179,179)" stroke-linejoin="round" d="M 1696,4055 L 1846,4055"/>
 <path fill="none" stroke="rgb(179,179,179)" stroke-linejoin="round" d="M 1696,2612 L 1846,2612"/>
 <path fill="none" stroke="rgb(179,179,179)" stroke-linejoin="round" d="M 1696,2612 L 1846,2612"/>
 <path fill="none" stroke="rgb(179,179,179)" stroke-linejoin="round" d="M 1846,12715 L 1846,2612"/>
 <path fill="rgb(0,69,134)" stroke="none" d="M 20799,12715 L 21174,12715 21174,12680 20799,12680 20799,12715 Z"/>
 <path fill="rgb(0,69,134)" stroke="none" d="M 20048,12715 L 20423,12715 20423,12618 20048,12618 20048,12715 Z"/>
 <path fill="rgb(0,69,134)" stroke="none" d="M 19297,12715 L 19673,12715 19673,12565 19297,12565 19297,12715 Z"/>
 <path fill="rgb(0,69,134)" stroke="none" d="M 18547,12715 L 18922,12715 18922,12563 18547,12563 18547,12715 Z"/>
 <path fill="rgb(0,69,134)" stroke="none" d="M 17796,12715 L 18171,12715 18171,12521 17796,12521 17796,12715 Z"/>
 <path fill="rgb(0,69,134)" stroke="none" d="M 17045,12715 L 17421,12715 17421,11930 17045,11930 17045,12715 Z"/>
 <path fill="rgb(0,69,134)" stroke="none" d="M 16295,12715 L 16670,12715 16670,11740 16295,11740 16295,12715 Z"/>
 <path fill="rgb(0,69,134)" stroke="none" d="M 15544,12715 L 15919,12715 15919,11683 15544,11683 15544,12715 Z"/>
 <path fill="rgb(0,69,134)" stroke="none" d="M 14793,12715 L 15169,12715 15169,11662 14793,11662 14793,12715 Z"/>
 <path fill="rgb(0,69,134)" stroke="none" d="M 14043,12715 L 14418,12715 14418,11588 14043,11588 14043,12715 Z"/>
 <path fill="rgb(0,69,134)" stroke="none" d="M 13292,12715 L 13667,12715 13667,11134 13292,11134 13292,12715 Z"/>
 <path fill="rgb(0,69,134)" stroke="none" d="M 12541,12715 L 12917,12715 12917,11117 12541,11117 12541,12715 Z"/>
 <path fill="rgb(0,69,134)" stroke="none" d="M 11792,12715 L 12166,12715 12166,10872 11792,10872 11792,12715 Z"/>
 <path fill="rgb(0,69,134)" stroke="none" d="M 11041,12715 L 11416,12715 11416,10783 11041,10783 11041,12715 Z"/>
 <path fill="rgb(0,69,134)" stroke="none" d="M 10290,12715 L 10666,12715 10666,10445 10290,10445 10290,12715 Z"/>
 <path fill="rgb(0,69,134)" stroke="none" d="M 9540,12715 L 9915,12715 9915,10442 9540,10442 9540,12715 Z"/>
 <path fill="rgb(0,69,134)" stroke="none" d="M 8789,12715 L 9164,12715 9164,10307 8789,10307 8789,12715 Z"/>
 <path fill="rgb(0,69,134)" stroke="none" d="M 8038,12715 L 8414,12715 8414,9199 8038,9199 8038,12715 Z"/>
 <path fill="rgb(0,69,134)" stroke="none" d="M 7288,12715 L 7663,12715 7663,8683 7288,8683 7288,12715 Z"/>
 <path fill="rgb(0,69,134)" stroke="none" d="M 6537,12715 L 6912,12715 6912,8443 6537,8443 6537,12715 Z"/>
 <path fill="rgb(0,69,134)" stroke="none" d="M 5786,12715 L 6162,12715 6162,7822 5786,7822 5786,12715 Z"/>
 <path fill="rgb(0,69,134)" stroke="none" d="M 5036,12715 L 5411,12715 5411,7733 5036,7733 5036,12715 Z"/>
 <path fill="rgb(0,69,134)" stroke="none" d="M 4285,12715 L 4660,12715 4660,7495 4285,7495 4285,12715 Z"/>
 <path fill="rgb(0,69,134)" stroke="none" d="M 3534,12715 L 3910,12715 3910,7329 3534,7329 3534,12715 Z"/>
 <path fill="rgb(0,69,134)" stroke="none" d="M 2784,12715 L 3159,12715 3159,5405 2784,5405 2784,12715 Z"/>
 <path fill="rgb(0,69,134)" stroke="none" d="M 2033,12715 L 2408,12715 2408,3601 2033,3601 2033,12715 Z"/>
 <text class="TextShape"><tspan class="TextParagraph" font-family="Liberation Sans, sans-serif" font-size="353px" font-weight="400"><tspan class="TextPosition" x="2102" y="13283"><tspan fill="rgb(0,0,0)" stroke="none">E</tspan></tspan></tspan></text>
 <text class="TextShape"><tspan class="TextParagraph" font-family="Liberation Sans, sans-serif" font-size="353px" font-weight="400"><tspan class="TextPosition" x="2865" y="13283"><tspan fill="rgb(0,0,0)" stroke="none">T</tspan></tspan></tspan></text>
 <text class="TextShape"><tspan class="TextParagraph" font-family="Liberation Sans, sans-serif" font-size="353px" font-weight="400"><tspan class="TextPosition" x="3589" y="13283"><tspan fill="rgb(0,0,0)" stroke="none">O</tspan></tspan></tspan></text>
 <text class="TextShape"><tspan class="TextParagraph" font-family="Liberation Sans, sans-serif" font-size="353px" font-weight="400"><tspan class="TextPosition" x="4420" y="13283"><tspan fill="rgb(0,0,0)" stroke="none">I</tspan></tspan></tspan></text>
 <text class="TextShape"><tspan class="TextParagraph" font-family="Liberation Sans, sans-serif" font-size="353px" font-weight="400"><tspan class="TextPosition" x="5104" y="13283"><tspan fill="rgb(0,0,0)" stroke="none">N</tspan></tspan></tspan></text>
 <text class="TextShape"><tspan class="TextParagraph" font-family="Liberation Sans, sans-serif" font-size="353px" font-weight="400"><tspan class="TextPosition" x="5855" y="13283"><tspan fill="rgb(0,0,0)" stroke="none">A</tspan></tspan></tspan></text>
 <text class="TextShape"><tspan class="TextParagraph" font-family="Liberation Sans, sans-serif" font-size="353px" font-weight="400"><tspan class="TextPosition" x="6606" y="13283"><tspan fill="rgb(0,0,0)" stroke="none">S</tspan></tspan></tspan></text>
 <text class="TextShape"><tspan class="TextParagraph" font-family="Liberation Sans, sans-serif" font-size="353px" font-weight="400"><tspan class="TextPosition" x="7356" y="13283"><tspan fill="rgb(0,0,0)" stroke="none">R</tspan></tspan></tspan></text>
 <text class="TextShape"><tspan class="TextParagraph" font-family="Liberation Sans, sans-serif" font-size="353px" font-weight="400"><tspan class="TextPosition" x="8107" y="13283"><tspan fill="rgb(0,0,0)" stroke="none">H</tspan></tspan></tspan></text>
 <text class="TextShape"><tspan class="TextParagraph" font-family="Liberation Sans, sans-serif" font-size="353px" font-weight="400"><tspan class="TextPosition" x="8884" y="13283"><tspan fill="rgb(0,0,0)" stroke="none">L</tspan></tspan></tspan></text>
 <text class="TextShape"><tspan class="TextParagraph" font-family="Liberation Sans, sans-serif" font-size="353px" font-weight="400"><tspan class="TextPosition" x="9608" y="13283"><tspan fill="rgb(0,0,0)" stroke="none">C</tspan></tspan></tspan></text>
 <text class="TextShape"><tspan class="TextParagraph" font-family="Liberation Sans, sans-serif" font-size="353px" font-weight="400"><tspan class="TextPosition" x="10359" y="13283"><tspan fill="rgb(0,0,0)" stroke="none">D</tspan></tspan></tspan></text>
 <text class="TextShape"><tspan class="TextParagraph" font-family="Liberation Sans, sans-serif" font-size="353px" font-weight="400"><tspan class="TextPosition" x="11110" y="13283"><tspan fill="rgb(0,0,0)" stroke="none">U</tspan></tspan></tspan></text>
 <text class="TextShape"><tspan class="TextParagraph" font-family="Liberation Sans, sans-serif" font-size="353px" font-weight="400"><tspan class="TextPosition" x="11873" y="13283"><tspan fill="rgb(0,0,0)" stroke="none">F</tspan></tspan></tspan></text>
 <text class="TextShape"><tspan class="TextParagraph" font-family="Liberation Sans, sans-serif" font-size="353px" font-weight="400"><tspan class="TextPosition" x="12584" y="13283"><tspan fill="rgb(0,0,0)" stroke="none">M</tspan></tspan></tspan></text>
 <text class="TextShape"><tspan class="TextParagraph" font-family="Liberation Sans, sans-serif" font-size="353px" font-weight="400"><tspan class="TextPosition" x="13362" y="13283"><tspan fill="rgb(0,0,0)" stroke="none">P</tspan></tspan></tspan></text>
 <text class="TextShape"><tspan class="TextParagraph" font-family="Liberation Sans, sans-serif" font-size="353px" font-weight="400"><tspan class="TextPosition" x="14112" y="13283"><tspan fill="rgb(0,0,0)" stroke="none">B</tspan></tspan></tspan></text>
 <text class="TextShape"><tspan class="TextParagraph" font-family="Liberation Sans, sans-serif" font-size="353px" font-weight="400"><tspan class="TextPosition" x="14863" y="13283"><tspan fill="rgb(0,0,0)" stroke="none">Y</tspan></tspan></tspan></text>
 <text class="TextShape"><tspan class="TextParagraph" font-family="Liberation Sans, sans-serif" font-size="353px" font-weight="400"><tspan class="TextPosition" x="15574" y="13283"><tspan fill="rgb(0,0,0)" stroke="none">W</tspan></tspan></tspan></text>
 <text class="TextShape"><tspan class="TextParagraph" font-family="Liberation Sans, sans-serif" font-size="353px" font-weight="400"><tspan class="TextPosition" x="16350" y="13283"><tspan fill="rgb(0,0,0)" stroke="none">G</tspan></tspan></tspan></text>
 <text class="TextShape"><tspan class="TextParagraph" font-family="Liberation Sans, sans-serif" font-size="353px" font-weight="400"><tspan class="TextPosition" x="17115" y="13283"><tspan fill="rgb(0,0,0)" stroke="none">V</tspan></tspan></tspan></text>
 <text class="TextShape"><tspan class="TextParagraph" font-family="Liberation Sans, sans-serif" font-size="353px" font-weight="400"><tspan class="TextPosition" x="17866" y="13283"><tspan fill="rgb(0,0,0)" stroke="none">X</tspan></tspan></tspan></text>
 <text class="TextShape"><tspan class="TextParagraph" font-family="Liberation Sans, sans-serif" font-size="353px" font-weight="400"><tspan class="TextPosition" x="18642" y="13283"><tspan fill="rgb(0,0,0)" stroke="none">J</tspan></tspan></tspan></text>
 <text class="TextShape"><tspan class="TextParagraph" font-family="Liberation Sans, sans-serif" font-size="353px" font-weight="400"><tspan class="TextPosition" x="19367" y="13283"><tspan fill="rgb(0,0,0)" stroke="none">K</tspan></tspan></tspan></text>
 <text class="TextShape"><tspan class="TextParagraph" font-family="Liberation Sans, sans-serif" font-size="353px" font-weight="400"><tspan class="TextPosition" x="20104" y="13283"><tspan fill="rgb(0,0,0)" stroke="none">Q</tspan></tspan></tspan></text>
 <text class="TextShape"><tspan class="TextParagraph" font-family="Liberation Sans, sans-serif" font-size="353px" font-weight="400"><tspan class="TextPosition" x="20881" y="13283"><tspan fill="rgb(0,0,0)" stroke="none">Z</tspan></tspan></tspan></text>
 <text class="TextShape"><tspan class="TextParagraph" font-family="Liberation Sans, sans-serif" font-size="353px" font-weight="400"><tspan class="TextPosition" x="1411" y="12836"><tspan fill="rgb(0,0,0)" stroke="none">0</tspan></tspan></tspan></text>
 <text class="TextShape"><tspan class="TextParagraph" font-family="Liberation Sans, sans-serif" font-size="353px" font-weight="400"><tspan class="TextPosition" x="670" y="11392"><tspan fill="rgb(0,0,0)" stroke="none">20000</tspan></tspan></tspan></text>
 <text class="TextShape"><tspan class="TextParagraph" font-family="Liberation Sans, sans-serif" font-size="353px" font-weight="400"><tspan class="TextPosition" x="670" y="9949"><tspan fill="rgb(0,0,0)" stroke="none">40000</tspan></tspan></tspan></text>
 <text class="TextShape"><tspan class="TextParagraph" font-family="Liberation Sans, sans-serif" font-size="353px" font-weight="400"><tspan class="TextPosition" x="670" y="8505"><tspan fill="rgb(0,0,0)" stroke="none">60000</tspan></tspan></tspan></text>
 <text class="TextShape"><tspan class="TextParagraph" font-family="Liberation Sans, sans-serif" font-size="353px" font-weight="400"><tspan class="TextPosition" x="670" y="7062"><tspan fill="rgb(0,0,0)" stroke="none">80000</tspan></tspan></tspan></text>
 <text class="TextShape"><tspan class="TextParagraph" font-family="Liberation Sans, sans-serif" font-size="353px" font-weight="400"><tspan class="TextPosition" x="485" y="5618"><tspan fill="rgb(0,0,0)" stroke="none">100000</tspan></tspan></tspan></text>
 <text class="TextShape"><tspan class="TextParagraph" font-family="Liberation Sans, sans-serif" font-size="353px" font-weight="400"><tspan class="TextPosition" x="485" y="4175"><tspan fill="rgb(0,0,0)" stroke="none">120000</tspan></tspan></tspan></text>
 <text class="TextShape"><tspan class="TextParagraph" font-family="Liberation Sans, sans-serif" font-size="353px" font-weight="400"><tspan class="TextPosition" x="485" y="2732"><tspan fill="rgb(0,0,0)" stroke="none">140000</tspan></tspan></tspan></text>
 <text class="TextShape"><tspan class="TextParagraph" font-family="Liberation Sans, sans-serif" font-size="459px" font-weight="400"><tspan class="TextPosition" x="8007" y="943"><tspan fill="rgb(0,0,0)" stroke="none">Letter frequency in The Federalist Papers</tspan></tspan></tspan></text>
 <text class="TextShape"><tspan class="TextParagraph" font-family="Liberation Sans, sans-serif" font-size="388px" font-weight="400"><tspan class="TextPosition" x="9171" y="1945"><tspan fill="rgb(0,0,0)" stroke="none">As retrieved by Project Gutenberg</tspan></tspan></tspan></text>
 <path fill="rgb(0,69,134)" stroke="none" d="M 22068,6922 L 21962,6922 21962,6712 22173,6712 22173,6922 22068,6922 Z"/>
 <text class="TextShape"><tspan class="TextParagraph" font-family="Liberation Sans, sans-serif" font-size="353px" font-weight="400"><tspan class="TextPosition" x="22273" y="6936"><tspan fill="rgb(0,0,0)" stroke="none">Frequency</tspan></tspan></tspan></text>
</svg>